<svg width="20" height="20" viewBox="0 0 20 20" fill="none" xmlns="http://www.w3.org/2000/svg">
<path d="M4.65 3C3.94718 3 3.27314 3.2792 2.77617 3.77617C2.2792 4.27314 2 4.94718 2 5.65V5.91633L9.95 10.1974L17.9 5.91765V5.65C17.9 4.94718 17.6208 4.27314 17.1238 3.77617C16.6269 3.2792 15.9528 3 15.25 3H4.65Z" fill="#4F3C74"/>
<path d="M17.9 7.42139L10.264 11.5329C10.1675 11.5848 10.0596 11.612 9.95 11.612C9.84039 11.612 9.73249 11.5848 9.63597 11.5329L2 7.42139V13.5999C2 14.3027 2.2792 14.9767 2.77617 15.4737C3.27314 15.9707 3.94718 16.2499 4.65 16.2499H15.25C15.9528 16.2499 16.6269 15.9707 17.1238 15.4737C17.6208 14.9767 17.9 14.3027 17.9 13.5999V7.42139Z" fill="#4F3C74"/>
</svg>
